/* XPM */
static char * odie48_xpm[] = {
"48 48 256 2",
"  	c #047683",
". 	c #047784",
"+ 	c #067784",
"@ 	c #077985",
"# 	c #077886",
"$ 	c #087987",
"% 	c #0B7B87",
"& 	c #0C7B89",
"* 	c #298C99",
"= 	c #2B8C99",
"- 	c #32909D",
"; 	c #3E9ADE",
"> 	c #54A2B0",
", 	c #58A5B3",
"' 	c #76B5C3",
") 	c #76B6C4",
"! 	c #80BBC9",
"~ 	c #87BECD",
"{ 	c #8EC2D0",
"] 	c #91C4D2",
"^ 	c #92C4D2",
"/ 	c #93C5D3",
"( 	c #9DCAD8",
"_ 	c #A0CCDA",
": 	c #B3D7E5",
"< 	c #B4D7E5",
"[ 	c #B6D9E6",
"} 	c #B6D9E7",
"| 	c #C2DFED",
"1 	c #D1E7F5",
"2 	c #D2E8F6",
"3 	c #E3F1FF",
"4 	c #000000",
"5 	c #000000",
"6 	c #000000",
"7 	c #000000",
"8 	c #000000",
"9 	c #000000",
"0 	c #000000",
"a 	c #000000",
"b 	c #000000",
"c 	c #000000",
"d 	c #000000",
"e 	c #000000",
"f 	c #000000",
"g 	c #000000",
"h 	c #000000",
"i 	c #000000",
"j 	c #000000",
"k 	c #000000",
"l 	c #000000",
"m 	c #000000",
"n 	c #000000",
"o 	c #000000",
"p 	c #000000",
"q 	c #000000",
"r 	c #000000",
"s 	c #000000",
"t 	c #000000",
"u 	c #000000",
"v 	c #000000",
"w 	c #000000",
"x 	c #000000",
"y 	c #000000",
"z 	c #000000",
"A 	c #000000",
"B 	c #000000",
"C 	c #000000",
"D 	c #000000",
"E 	c #000000",
"F 	c #000000",
"G 	c #000000",
"H 	c #000000",
"I 	c #000000",
"J 	c #000000",
"K 	c #000000",
"L 	c #000000",
"M 	c #000000",
"N 	c #000000",
"O 	c #000000",
"P 	c #000000",
"Q 	c #000000",
"R 	c #000000",
"S 	c #000000",
"T 	c #000000",
"U 	c #000000",
"V 	c #000000",
"W 	c #000000",
"X 	c #000000",
"Y 	c #000000",
"Z 	c #000000",
"` 	c #000000",
" .	c #000000",
"..	c #000000",
"+.	c #000000",
"@.	c #000000",
"#.	c #000000",
"$.	c #000000",
"%.	c #000000",
"&.	c #000000",
"*.	c #000000",
"=.	c #000000",
"-.	c #000000",
";.	c #000000",
">.	c #000000",
",.	c #000000",
"'.	c #000000",
").	c #000000",
"!.	c #000000",
"~.	c #000000",
"{.	c #000000",
"].	c #000000",
"^.	c #000000",
"/.	c #000000",
"(.	c #000000",
"_.	c #000000",
":.	c #000000",
"<.	c #000000",
"[.	c #000000",
"}.	c #000000",
"|.	c #000000",
"1.	c #000000",
"2.	c #000000",
"3.	c #000000",
"4.	c #000000",
"5.	c #000000",
"6.	c #000000",
"7.	c #000000",
"8.	c #000000",
"9.	c #000000",
"0.	c #000000",
"a.	c #000000",
"b.	c #000000",
"c.	c #000000",
"d.	c #000000",
"e.	c #000000",
"f.	c #000000",
"g.	c #000000",
"h.	c #000000",
"i.	c #000000",
"j.	c #000000",
"k.	c #000000",
"l.	c #000000",
"m.	c #000000",
"n.	c #000000",
"o.	c #000000",
"p.	c #000000",
"q.	c #000000",
"r.	c #000000",
"s.	c #000000",
"t.	c #000000",
"u.	c #000000",
"v.	c #000000",
"w.	c #000000",
"x.	c #000000",
"y.	c #000000",
"z.	c #000000",
"A.	c #000000",
"B.	c #000000",
"C.	c #000000",
"D.	c #000000",
"E.	c #000000",
"F.	c #000000",
"G.	c #000000",
"H.	c #000000",
"I.	c #000000",
"J.	c #000000",
"K.	c #000000",
"L.	c #000000",
"M.	c #000000",
"N.	c #000000",
"O.	c #000000",
"P.	c #000000",
"Q.	c #000000",
"R.	c #000000",
"S.	c #000000",
"T.	c #000000",
"U.	c #000000",
"V.	c #000000",
"W.	c #000000",
"X.	c #000000",
"Y.	c #000000",
"Z.	c #000000",
"`.	c #000000",
" +	c #000000",
".+	c #000000",
"++	c #000000",
"@+	c #000000",
"#+	c #000000",
"$+	c #000000",
"%+	c #000000",
"&+	c #000000",
"*+	c #000000",
"=+	c #000000",
"-+	c #000000",
";+	c #000000",
">+	c #000000",
",+	c #000000",
"'+	c #000000",
")+	c #000000",
"!+	c #000000",
"~+	c #000000",
"{+	c #000000",
"]+	c #000000",
"^+	c #000000",
"/+	c #000000",
"(+	c #000000",
"_+	c #000000",
":+	c #000000",
"<+	c #000000",
"[+	c #000000",
"}+	c #000000",
"|+	c #000000",
"1+	c #000000",
"2+	c #000000",
"3+	c #000000",
"4+	c #000000",
"5+	c #000000",
"6+	c #000000",
"7+	c #000000",
"8+	c #000000",
"9+	c #000000",
"0+	c #000000",
"a+	c #000000",
"b+	c #000000",
"c+	c #000000",
"d+	c #000000",
"e+	c #000000",
"f+	c #000000",
"g+	c #000000",
"h+	c #000000",
"i+	c #000000",
"j+	c #000000",
"k+	c #000000",
"l+	c #000000",
"m+	c #000000",
"n+	c #000000",
"o+	c #000000",
"p+	c #000000",
"q+	c #000000",
"r+	c #000000",
"s+	c #000000",
"t+	c #000000",
"u+	c #000000",
"v+	c #000000",
"w+	c #000000",
"x+	c #000000",
"y+	c #000000",
"z+	c #000000",
"A+	c #000000",
"B+	c #000000",
"C+	c #000000",
"D+	c #000000",
"E+	c #000000",
"F+	c #000000",
"G+	c #000000",
"; ; ; ; ; ; ; ; ; ; ; ; ; ; ; ; ; ; ; ; ; ; ; ; ; ; ; ; ; ; ; ; ; ; ; ; ; ; ; ; ; ; ; ; ; ; ; ; ",
"; 3 3 3 3 3 3 3 3 3 3 3 3 3 3 3 3 3 3 3 3 3 3 3 3 3 3 3 3 3 3 3 3 3 3 3 3 3 3 3 3 3 3 3 3 3 3 ; ",
"; 3 3 3 3 3 3 3 3 3 3 3 3 3 3 3 3 3 3 3 3 3 3 3 3 3 3 3 3 3 3 3 3 3 3 3 3 3 3 3 3 3 3 3 3 3 3 ; ",
"; 3 3 3 3 3 3 3 3 3 3 3 3 3 3 3 3 3 3 3 3 3 3 3 3 3 3 3 3 3 3 3 3 3 3 3 3 3 3 3 3 3 3 3 3 3 3 ; ",
"; 3 3 3 3 3 3 3 3 3 3 3 3 3 3 3 3 3 3 3 3 3 3 3 3 3 3 3 3 3 3 3 3 3 3 3 3 3 3 3 3 3 3 3 3 3 3 ; ",
"; 3 3 3 . . . . . . . . . . . . . . . . . . . : : . . . . . . . . . . . . . . . . - 3 3 3 3 3 ; ",
"; 3 3 3 . . . . . . . . . . . . . . . . . . . : : . . . . . . . . . . . . . . . . - 3 3 3 3 3 ; ",
"; 3 3 3 . . . . . . . . . . . . . . . . . . . : : . . . . . . . . . . . . . . . . & = = 3 3 3 ; ",
"; 3 3 3 . . . . . . . . . . . . . . . . . . . : : . . . . . . . . . . . . . . . . . . . 3 3 3 ; ",
"; 3 3 3 . . . . , / / / / / / / / / ' . . . . : : . . . . ) / / / / / / / / / , . . . . 3 3 3 ; ",
"; 3 3 3 . . . . ~ 3 3 3 3 3 3 3 3 3 } . . . . : : . . . . [ 3 3 3 3 3 3 3 3 3 ~ . . . . 3 3 3 ; ",
"; 3 3 3 . . . . ~ 3 3 3 3 3 3 3 3 3 } . . . . : : . . . . [ 3 3 3 3 3 3 3 3 3 ~ . . . . 3 3 3 ; ",
"; 3 3 3 . . . . ~ 3 3 3 3 3 3 3 3 3 } . . . . : : . . . . [ 3 3 3 3 3 3 3 3 3 ~ . . . . 3 3 3 ; ",
"; 3 3 3 . . . . ~ 3 3 3 3 3 3 3 3 3 } . . . . : : . . . . [ 3 3 3 3 3 3 3 3 3 ~ . . . . 3 3 3 ; ",
"; 3 3 3 . . . . ~ 3 3 3 3 3 3 3 3 3 } . . . . : : . . . . [ 3 3 3 3 3 3 3 3 3 ~ . . . . 3 3 3 ; ",
"; 3 3 3 . . . . ~ 3 3 3 3 3 3 3 3 3 } . . . . : : . . . . [ 3 3 3 3 3 3 3 3 3 ~ . . . . 3 3 3 ; ",
"; 3 3 3 . . . . ~ 3 3 3 3 3 3 3 3 3 } . . . . : : . . . . [ 3 3 3 3 3 3 3 3 3 ~ . . . . 3 3 3 ; ",
"; 3 3 3 . . . . ~ 3 3 3 3 3 3 3 3 3 } . . . . : : . . . . [ 3 3 3 3 3 3 3 3 3 ~ . . . . 3 3 3 ; ",
"; 3 3 3 . . . . ~ 3 3 3 3 3 3 3 3 3 } . . . . : : . . . . [ 3 3 3 3 3 3 3 3 3 ~ . . . . 3 3 3 ; ",
"; 3 3 3 . . . . + @ @ @ @ @ @ @ @ @ # . . . . : : . . . . # @ @ @ @ @ @ @ @ @ + . . . . 3 3 3 ; ",
"; 3 3 3 . . . . . . . . . . . . . . . . . . . : : . . . . . . . . . . . . . . . . . . . 3 3 3 ; ",
"; 3 3 3 . . . . . . . . . . . . . . . . . . . : : . . . . . . . . . . . . . . . . * [ [ 3 3 3 ; ",
"; 3 3 3 . . . . . . . . . . . . . . . . . . . : : . . . . . . . . . . . . . . . . - 3 3 3 3 3 ; ",
"; 3 3 3 { { { { { { { { { { { { { { { { { { { 1 1 { { { { { { { { { { { { { { { { _ 3 3 3 3 3 ; ",
"; 3 3 3 { { { { { { { { { { { { { { { { { { { 1 1 { { { { { { { { { { { { { { { { { { { 3 3 3 ; ",
"; 3 3 3 . . . . . . . . . . . . . . . . . . . : : . . . . . . . . . . . . . . . . . . . 3 3 3 ; ",
"; 3 3 3 . . . . . . . . . . . . . . . . . . . : : . . . . . . . . . . . . . . . . . . . 3 3 3 ; ",
"; 3 3 3 . . . . . . . . . . . . . . . . . . . : : . . . . . . . . . . . . . . . . . . . 3 3 3 ; ",
"; 3 3 3 @ @ @ @ @ @ @ + . . .   @ @ @ @ @ @ @ < : . . . . # @ @ @ @ @ @ @ @ @ @ @ @ @ @ 3 3 3 ; ",
"; 3 3 3 3 3 3 3 3 3 3 ! . . . % 3 3 3 3 3 3 3 3 : . . . . [ 3 3 3 3 3 3 3 3 3 3 3 3 3 3 3 3 3 ; ",
"; 3 3 3 3 3 3 3 3 3 3 ! . . . % 3 3 3 3 3 3 3 3 : . . . . [ 3 3 3 3 3 3 3 3 3 3 3 3 3 3 3 3 3 ; ",
"; 3 3 3 3 3 3 3 3 3 3 ! . . . % 3 3 3 3 3 3 3 3 : . . . . ] : : : : : : : : : : : : : : 3 3 3 ; ",
"; 3 3 3 3 3 3 3 3 3 3 ! . . . % 3 3 3 3 3 3 3 3 : . . . . . . . . . . . . . . . . . . . 3 3 3 ; ",
"; 3 3 3 3 3 3 3 3 3 3 ! . . . % 3 3 3 3 3 3 3 3 : . . . . . . . . . . . . . . . . . . . 3 3 3 ; ",
"; 3 3 3 3 3 3 3 3 3 3 ! . . . % 3 3 3 3 3 3 3 3 : . . . . . . . . . . . . . . . . . . . 3 3 3 ; ",
"; 3 3 3 3 3 3 3 3 3 3 ! . . . % 3 3 3 3 3 3 3 3 : . . . . . . . . . . . . . . . . . . . 3 3 3 ; ",
"; 3 3 3 3 3 3 3 3 3 3 ! . . . % 3 3 3 3 3 3 3 3 : . . . . ( | | | | | | | | | | | | | | 3 3 3 ; ",
"; 3 3 3 3 3 3 3 3 3 3 ! . . . % 3 3 3 3 3 3 3 3 : . . . . [ 3 3 3 3 3 3 3 3 3 3 3 3 3 3 3 3 3 ; ",
"; 3 3 3 ^ ^ ^ ^ ^ ^ ^ > . . . $ ^ ^ ^ ^ ^ ^ ^ 2 : . . . . ' ^ ^ ^ ^ ^ ^ ^ ^ ^ ^ ^ ^ ^ ^ 3 3 3 ; ",
"; 3 3 3 . . . . . . . . . . . . . . . . . . . : : . . . . . . . . . . . . . . . . . . . 3 3 3 ; ",
"; 3 3 3 . . . . . . . . . . . . . . . . . . . : : . . . . . . . . . . . . . . . . . . . 3 3 3 ; ",
"; 3 3 3 . . . . . . . . . . . . . . . . . . . : : . . . . . . . . . . . . . . . . . . . 3 3 3 ; ",
"; 3 3 3 . . . . . . . . . . . . . . . . . . . : : . . . . . . . . . . . . . . . . . . . 3 3 3 ; ",
"; 3 3 3 3 3 3 3 3 3 3 3 3 3 3 3 3 3 3 3 3 3 3 3 3 3 3 3 3 3 3 3 3 3 3 3 3 3 3 3 3 3 3 3 3 3 3 ; ",
"; 3 3 3 3 3 3 3 3 3 3 3 3 3 3 3 3 3 3 3 3 3 3 3 3 3 3 3 3 3 3 3 3 3 3 3 3 3 3 3 3 3 3 3 3 3 3 ; ",
"; 3 3 3 3 3 3 3 3 3 3 3 3 3 3 3 3 3 3 3 3 3 3 3 3 3 3 3 3 3 3 3 3 3 3 3 3 3 3 3 3 3 3 3 3 3 3 ; ",
"; 3 3 3 3 3 3 3 3 3 3 3 3 3 3 3 3 3 3 3 3 3 3 3 3 3 3 3 3 3 3 3 3 3 3 3 3 3 3 3 3 3 3 3 3 3 3 ; ",
"; ; ; ; ; ; ; ; ; ; ; ; ; ; ; ; ; ; ; ; ; ; ; ; ; ; ; ; ; ; ; ; ; ; ; ; ; ; ; ; ; ; ; ; ; ; ; ; "};
